<?xml version="1.0" encoding="UTF-8"?>
<!DOCTYPE svg PUBLIC "-//W3C//DTD SVG 1.1//EN" "http://www.w3.org/Graphics/SVG/1.1/DTD/svg11.dtd">
<svg
	xmlns="http://www.w3.org/2000/svg"
	xmlns:xlink="http://www.w3.org/1999/xlink" version="1.1"
    width="360px" height="360px" viewBox="-0.5 -0.5 360 360"
>
	<g>
        <!-- Inner Circle -->
		<path
            d="M 320 180 C 320 257.32 257.32 320 180 320 C 102.68 320 40 257.32 40 180 C 40 102.68 102.68 40 180 40 L 180 90.4 C 130.52 90.4 90.4 130.52 90.4 180 C 90.4 229.48 130.52 269.6 180 269.6 C 229.48 269.6 269.6 229.48 269.6 180 Z"
            fill="hsl(50, 70%, 15%)" stroke="none" 
            pointer-events="all" />

        <!-- Outer Circle -->
		<path
            d="M 347.86 115.02 C 378.58 194.37 349.54 284.38 278.25 330.82 C 206.96 377.26 112.88 367.44 52.72 307.28 C -7.44 247.12 -17.26 153.04 29.18 81.75 C 75.62 10.46 165.63 -18.58 244.98 12.14 L 228.73 54.1 C 169.22 31.07 101.71 52.85 66.88 106.31 C 32.05 159.78 39.42 230.34 84.54 275.46 C 129.66 320.58 200.22 327.95 253.69 293.12 C 307.15 258.29 328.93 190.78 305.9 131.27 Z"
            fill="hsl(50, 70%, 35%)" stroke="none" 
            pointer-events="all" />

        <!-- Inner Arrow (Body) -->
		<path 
            d="M 127.4 200.83 L 210 150 L 159.17 232.6" 
            fill="none" stroke="hsl(50, 70%, 75%)"
            stroke-width="25" stroke-miterlimit="10" 
            pointer-events="stroke" />

        <!-- Inner Arrow (Left Tail) -->
		<path 
            d="M 101 217.08 L 109.42 201.19 L 127.4 200.83 L 118.98 216.72 Z" 
            fill="#7d7d7d" stroke="hsl(50, 70%, 75%)" 
            stroke-width="25" stroke-miterlimit="10" 
            pointer-events="all" />

        <!-- Inner Arrow (Right Tail) -->
		<path 
        d="M 142.92 259 L 143.28 241.02 L 159.17 232.6 L 158.81 250.58 Z" 
            fill="#7d7d7d" stroke="hsl(50, 70%, 75%)" 
            stroke-width="25" stroke-miterlimit="10" 
            pointer-events="all" />

        <!-- Outer Arrow (Body) -->
		<path 
            d="M 155.23 163.1 L 180 160 L 200 100 L 300 60 L 260 160 L 200 180 L 196.9 204.77" 
            fill="none" stroke="hsl(50, 70%, 15%)" 
            stroke-width="25" stroke-miterlimit="10"
            pointer-events="stroke" />

        <!-- Outer Arrow (Left Tail) -->
		<path 
            d="M 124.46 166.94 L 138.71 155.97 L 155.23 163.1 L 140.98 174.07 Z" 
            fill="#000000" stroke="hsl(50, 70%, 15%)" 
            stroke-width="25" stroke-miterlimit="10" 
            pointer-events="all" />

        <!-- Outer Arrow (Right Tail) -->
		<path 
            d="M 193.06 235.54 L 185.93 219.02 L 196.9 204.77 L 204.03 221.29 Z" 
            fill="#000000" stroke="hsl(50, 70%, 15%)" 
            stroke-width="25" stroke-miterlimit="10" 
            pointer-events="all" />
	</g>
</svg>